<mxfile host="app.diagrams.net" modified="2021-08-09T07:56:19.684Z" agent="5.0 (Windows)" etag="1TgeXfEZoQn16naRxmzl" version="14.9.5" type="github">
  <diagram id="HlnKt6sJ9EUCneYRQt3_" name="Page-1">
    <mxGraphModel dx="869" dy="426" grid="1" gridSize="10" guides="1" tooltips="1" connect="1" arrows="1" fold="1" page="1" pageScale="1" pageWidth="827" pageHeight="1169" math="0" shadow="0">
      <root>
        <mxCell id="0" />
        <mxCell id="1" parent="0" />
        <mxCell id="Fqp3LT4vj6CN99_wph3L-2" value="Load Balancer" style="verticalLabelPosition=bottom;html=1;verticalAlign=top;align=center;strokeColor=none;fillColor=#00BEF2;shape=mxgraph.azure.azure_load_balancer;" vertex="1" parent="1">
          <mxGeometry x="320" y="10" width="177" height="59" as="geometry" />
        </mxCell>
        <mxCell id="Fqp3LT4vj6CN99_wph3L-4" value="" style="outlineConnect=0;dashed=0;verticalLabelPosition=bottom;verticalAlign=top;align=center;html=1;shape=mxgraph.aws3.mysql_db_instance;fillColor=#2E73B8;gradientColor=none;" vertex="1" parent="1">
          <mxGeometry x="260" y="480" width="90" height="84" as="geometry" />
        </mxCell>
        <mxCell id="Fqp3LT4vj6CN99_wph3L-5" value="Redis" style="shape=image;html=1;verticalAlign=top;verticalLabelPosition=bottom;labelBackgroundColor=#ffffff;imageAspect=0;aspect=fixed;image=https://cdn4.iconfinder.com/data/icons/redis-2/1451/Untitled-2-128.png" vertex="1" parent="1">
          <mxGeometry x="480" y="464" width="100" height="100" as="geometry" />
        </mxCell>
        <mxCell id="Fqp3LT4vj6CN99_wph3L-6" value="" style="endArrow=none;dashed=1;html=1;" edge="1" parent="1">
          <mxGeometry width="50" height="50" relative="1" as="geometry">
            <mxPoint x="78.5" y="120" as="sourcePoint" />
            <mxPoint x="738.5" y="120" as="targetPoint" />
          </mxGeometry>
        </mxCell>
        <mxCell id="Fqp3LT4vj6CN99_wph3L-7" value="" style="endArrow=none;dashed=1;html=1;" edge="1" parent="1">
          <mxGeometry width="50" height="50" relative="1" as="geometry">
            <mxPoint x="100" y="430" as="sourcePoint" />
            <mxPoint x="760" y="430" as="targetPoint" />
          </mxGeometry>
        </mxCell>
        <mxCell id="Fqp3LT4vj6CN99_wph3L-8" value="H5" style="rounded=0;whiteSpace=wrap;html=1;" vertex="1" parent="1">
          <mxGeometry x="140" y="270" width="110" height="40" as="geometry" />
        </mxCell>
      </root>
    </mxGraphModel>
  </diagram>
</mxfile>
